<?xml version="1.0" encoding="UTF-8" standalone="no"?>
<svg
   version="1.0"
   width="210pt"
   height="300pt"
   viewBox="0 0 157.5 225"
   preserveAspectRatio="xMidYMid meet"
   id="svg846"
   sodipodi:docname="eepin1.svg"
   inkscape:version="1.1.1 (1:1.1+202109281949+c3084ef5ed)"
   xmlns:inkscape="http://www.inkscape.org/namespaces/inkscape"
   xmlns:sodipodi="http://sodipodi.sourceforge.net/DTD/sodipodi-0.dtd"
   xmlns="http://www.w3.org/2000/svg"
   xmlns:svg="http://www.w3.org/2000/svg">
  <defs
     id="defs850" />
  <sodipodi:namedview
     id="namedview848"
     pagecolor="#ffffff"
     bordercolor="#666666"
     borderopacity="1.0"
     inkscape:pageshadow="2"
     inkscape:pageopacity="0.0"
     inkscape:pagecheckerboard="0"
     inkscape:document-units="pt"
     showgrid="false"
     inkscape:zoom="0.51323064"
     inkscape:cx="-8.7679878"
     inkscape:cy="392.61101"
     inkscape:window-width="1848"
     inkscape:window-height="1016"
     inkscape:window-x="72"
     inkscape:window-y="27"
     inkscape:window-maximized="1"
     inkscape:current-layer="g844"
     units="pt" />
  <g
     transform="matrix(0.1,0,0,-0.1,-1542.5948,1941.7265)"
     fill="#0071bd"
     stroke="none"
     id="g844">
    <ellipse
       style="fill:#0071bd;stroke-width:8.61817;stroke-linecap:round;fill-opacity:1"
       id="ellipse9849"
       cx="16213.958"
       cy="-18537.76"
       transform="scale(1,-1)"
       rx="598.53687"
       ry="686.25" />
    <path
       d="m 16144.812,19414.723 c -183.224,-19.96 -348.128,-106.089 -478.52,-249.985 -106.88,-118 -183.224,-268.2 -218.656,-431.016 -18.008,-83.312 -21.976,-121.488 -21.672,-220.568 0,-93.144 2.44,-119.04 18.336,-200.28 38.152,-196.056 141.368,-417.345 293.136,-629.513 119.408,-167.36 288.896,-353.984 440.368,-485.984 l 34.792,-30.112 30.552,26.264 c 164.593,143.2 336.209,334.024 460.185,511.88 138.344,198.88 231.792,398.449 272.4,582.961 44.584,203.064 29.936,406.496 -43.056,594.168 -98.952,254.888 -302.32,447.457 -539.904,511.529 -70.536,18.896 -178.945,28.008 -247.961,20.656 z m 105.056,-196.065 c 145.649,-12.248 272.081,-77.384 374.089,-193.264 89.456,-101.896 147.48,-232.496 167.024,-376.744 6.72,-50.072 6.72,-147.4 0,-196.776 -26.56,-192.216 -118.488,-356.08 -259.872,-463.201 -51.904,-39.224 -113.896,-70.384 -174.064,-87.544 -56.488,-16.104 -72.672,-18.2 -148.105,-18.2 -65.656,0.32 -74.808,1.024 -109.936,9.8 -254.672,61.968 -437.288,290.609 -467.528,585.065 -4.576,43.76 -2.136,143.2 4.584,185.92 29.312,187.656 121.536,346.264 262,451.304 76.968,57.416 178.96,96.28 272.408,103.64 18.624,1.384 34.504,2.8 35.424,2.8 0.936,0.32 20.76,-1.024 43.976,-2.8 z"
       id="path824"
       style="stroke-width:0.326985" />
    <path
       d="m 16144.812,19414.723 c -183.224,-19.96 -348.128,-106.089 -478.52,-249.985 -106.88,-118 -183.224,-268.2 -218.656,-431.016 -18.008,-83.312 -21.976,-121.488 -21.672,-220.568 0,-93.144 2.44,-119.04 18.336,-200.28 38.152,-196.056 141.368,-417.345 293.136,-629.513 119.408,-167.36 288.896,-353.984 440.368,-485.984 l 34.792,-30.112 30.552,26.264 c 164.593,143.2 336.209,334.024 460.185,511.88 138.344,198.88 231.792,398.449 272.4,582.961 44.584,203.064 29.936,406.496 -43.056,594.168 -98.952,254.888 -302.32,447.457 -539.904,511.529 -70.536,18.896 -178.945,28.008 -247.961,20.656 z m 105.056,-196.065 c 145.649,-12.248 272.081,-77.384 374.089,-193.264 89.456,-101.896 147.48,-232.496 167.024,-376.744 6.72,-50.072 6.72,-147.4 0,-196.776 -26.56,-192.216 -118.488,-356.08 -259.872,-463.201 -51.904,-39.224 -113.896,-70.384 -174.064,-87.544 -56.488,-16.104 -72.672,-18.2 -148.105,-18.2 -65.656,0.32 -74.808,1.024 -109.936,9.8 -254.672,61.968 -437.288,290.609 -467.528,585.065 -4.576,43.76 -2.136,143.2 4.584,185.92 29.312,187.656 121.536,346.264 262,451.304 76.968,57.416 178.96,96.28 272.408,103.64 18.624,1.384 34.504,2.8 35.424,2.8 0.936,0.32 20.76,-1.024 43.976,-2.8 z"
       id="path1078"
       style="stroke-width:0.326985;fill:#0071bd;fill-opacity:1" />
    <ellipse
       style="fill:#ffffff;stroke-width:6.71359;stroke-linecap:round"
       id="path931"
       cx="16213.448"
       cy="-18242.801"
       transform="scale(1,-1)"
       rx="487.5"
       ry="511.29086" />
  </g>
</svg>
