<?xml version="1.0" encoding="UTF-8" standalone="no"?>
<svg
   version="1.0"
   width="35"
   height="50"
   viewBox="0 0 19.6875 28.125"
   preserveAspectRatio="xMidYMid meet"
   id="svg846"
   sodipodi:docname="eepin1.svg"
   inkscape:version="1.1.1 (1:1.1+202109281949+c3084ef5ed)"
   xmlns:inkscape="http://www.inkscape.org/namespaces/inkscape"
   xmlns:sodipodi="http://sodipodi.sourceforge.net/DTD/sodipodi-0.dtd"
   xmlns="http://www.w3.org/2000/svg"
   xmlns:svg="http://www.w3.org/2000/svg">
  <defs
     id="defs850" />
  <sodipodi:namedview
     id="namedview848"
     pagecolor="#ffffff"
     bordercolor="#666666"
     borderopacity="1.0"
     inkscape:pageshadow="2"
     inkscape:pageopacity="0.0"
     inkscape:pagecheckerboard="0"
     inkscape:document-units="pt"
     showgrid="false"
     inkscape:zoom="0.51323064"
     inkscape:cx="-8.7679878"
     inkscape:cy="392.61101"
     inkscape:window-width="1848"
     inkscape:window-height="1016"
     inkscape:window-x="72"
     inkscape:window-y="27"
     inkscape:window-maximized="1"
     inkscape:current-layer="g844"
     units="px" />
  <g
     transform="matrix(0.1,0,0,-0.1,-1542.5948,1941.7265)"
     fill="#0071bd"
     stroke="none"
     id="g844">
    <ellipse
       style="fill:#0071bd;fill-opacity:1;stroke-width:1.07727;stroke-linecap:round"
       id="ellipse9849"
       cx="15524.449"
       cy="-19307.328"
       transform="scale(1,-1)"
       rx="74.817055"
       ry="85.780998" />
    <path
       d="m 15515.806,19416.948 c -22.903,-2.495 -43.516,-13.262 -59.815,-31.248 -13.36,-14.75 -22.903,-33.525 -27.332,-53.878 -2.251,-10.414 -2.747,-15.185 -2.709,-27.57 0,-11.644 0.305,-14.88 2.292,-25.035 4.769,-24.507 17.671,-52.168 36.642,-78.69 14.926,-20.92 36.112,-44.247 55.046,-60.747 l 4.349,-3.765 3.819,3.284 c 20.574,17.9 42.026,41.753 57.523,63.985 17.293,24.86 28.974,49.806 34.05,72.869 5.573,25.384 3.742,50.812 -5.382,74.272 -12.369,31.86 -37.79,55.931 -67.488,63.94 -8.817,2.363 -22.368,3.501 -30.995,2.583 z m 13.132,-24.508 c 18.206,-1.532 34.01,-9.674 46.761,-24.159 11.182,-12.736 18.435,-29.061 20.878,-47.093 0.84,-6.258 0.84,-18.425 0,-24.596 -3.32,-24.027 -14.811,-44.51 -32.484,-57.9 -6.488,-4.903 -14.237,-8.798 -21.758,-10.943 -7.061,-2.014 -9.084,-2.275 -18.513,-2.275 -8.207,0.03 -9.351,0.133 -13.742,1.225 -31.834,7.746 -54.661,36.326 -58.441,73.133 -0.572,5.47 -0.267,17.9 0.573,23.24 3.664,23.456 15.192,43.283 32.75,56.413 9.621,7.176 22.37,12.035 34.051,12.955 2.328,0.171 4.313,0.35 4.428,0.35 0.117,0.03 2.595,-0.134 5.497,-0.35 z"
       id="path824"
       style="stroke-width:0.0408731" />
    <path
       d="m 15515.806,19416.948 c -22.903,-2.495 -43.516,-13.262 -59.815,-31.248 -13.36,-14.75 -22.903,-33.525 -27.332,-53.878 -2.251,-10.414 -2.747,-15.185 -2.709,-27.57 0,-11.644 0.305,-14.88 2.292,-25.035 4.769,-24.507 17.671,-52.168 36.642,-78.69 14.926,-20.92 36.112,-44.247 55.046,-60.747 l 4.349,-3.765 3.819,3.284 c 20.574,17.9 42.026,41.753 57.523,63.985 17.293,24.86 28.974,49.806 34.05,72.869 5.573,25.384 3.742,50.812 -5.382,74.272 -12.369,31.86 -37.79,55.931 -67.488,63.94 -8.817,2.363 -22.368,3.501 -30.995,2.583 z m 13.132,-24.508 c 18.206,-1.532 34.01,-9.674 46.761,-24.159 11.182,-12.736 18.435,-29.061 20.878,-47.093 0.84,-6.258 0.84,-18.425 0,-24.596 -3.32,-24.027 -14.811,-44.51 -32.484,-57.9 -6.488,-4.903 -14.237,-8.798 -21.758,-10.943 -7.061,-2.014 -9.084,-2.275 -18.513,-2.275 -8.207,0.03 -9.351,0.133 -13.742,1.225 -31.834,7.746 -54.661,36.326 -58.441,73.133 -0.572,5.47 -0.267,17.9 0.573,23.24 3.664,23.456 15.192,43.283 32.75,56.413 9.621,7.176 22.37,12.035 34.051,12.955 2.328,0.171 4.313,0.35 4.428,0.35 0.117,0.03 2.595,-0.134 5.497,-0.35 z"
       id="path1078"
       style="fill:#0071bd;fill-opacity:1;stroke-width:0.0408731" />
    <ellipse
       style="fill:#ffffff;stroke-width:0.839196;stroke-linecap:round"
       id="path931"
       cx="15524.386"
       cy="-19292.957"
       transform="scale(1,-1)"
       rx="60.937454"
       ry="63.911171" />
  </g>
</svg>
