<?xml version="1.0" encoding="utf-8"?>
<svg viewBox="0 0 36 36" width="36" height="36" xmlns="http://www.w3.org/2000/svg" xmlns:bx="http://www.w3.org/2000/svg">
  <g transform="matrix(0.1, 0, 0, -0.1, 0, 3000)" fill="#000000" stroke="none" id="g844">
    <path d="M 168.669 29979.638 C 138.423 29976.799 111.202 29964.549 89.677 29944.082 C 72.032 29927.302 59.431 29905.938 53.582 29882.786 C 50.608 29870.933 49.953 29865.505 50.002 29851.414 C 50.002 29838.168 50.407 29834.482 53.026 29822.93 C 59.329 29795.044 76.368 29763.574 101.422 29733.398 C 121.134 29709.596 149.111 29683.054 174.114 29664.283 L 179.861 29659.999 L 184.902 29663.734 C 212.073 29684.1 240.404 29711.238 260.87 29736.534 C 283.707 29764.817 299.133 29793.201 305.837 29819.445 C 313.198 29848.325 310.777 29877.258 298.729 29903.948 C 282.396 29940.198 248.823 29967.585 209.603 29976.7 C 197.958 29979.388 180.062 29980.682 168.669 29979.638 Z M 186.011 29951.75 C 210.057 29950.009 230.926 29940.747 247.764 29924.264 C 262.534 29909.774 272.113 29891.201 275.339 29870.684 C 276.448 29863.564 276.448 29849.721 275.339 29842.7 C 270.953 29815.361 255.78 29792.057 232.439 29776.818 C 223.869 29771.243 213.636 29766.811 203.706 29764.369 C 194.379 29762.08 191.707 29761.781 179.255 29761.781 C 168.418 29761.83 166.905 29761.931 161.107 29763.175 C 119.066 29771.989 88.92 29804.507 83.93 29846.384 C 83.174 29852.609 83.576 29866.75 84.686 29872.827 C 89.525 29899.515 104.75 29922.075 127.939 29937.012 C 140.641 29945.179 157.479 29950.704 172.904 29951.75 C 175.979 29951.952 178.601 29952.151 178.753 29952.151 C 178.904 29952.198 182.181 29952.001 186.011 29951.75 Z" id="path824" bx:origin="0.000002 0.999999"/>
  </g>
</svg>