<?xml version="1.0" encoding="UTF-8" standalone="no"?>
<svg
   version="1.0"
   width="30"
   height="45"
   viewBox="0 0 16.875 25.3125"
   preserveAspectRatio="xMidYMid meet"
   id="svg846"
   sodipodi:docname="pin5.svg"
   inkscape:version="1.1.1 (1:1.1+202109281949+c3084ef5ed)"
   xmlns:inkscape="http://www.inkscape.org/namespaces/inkscape"
   xmlns:sodipodi="http://sodipodi.sourceforge.net/DTD/sodipodi-0.dtd"
   xmlns="http://www.w3.org/2000/svg"
   xmlns:svg="http://www.w3.org/2000/svg">
  <defs
     id="defs850" />
  <sodipodi:namedview
     id="namedview848"
     pagecolor="#ffffff"
     bordercolor="#666666"
     borderopacity="1.0"
     inkscape:pageshadow="2"
     inkscape:pageopacity="0.0"
     inkscape:pagecheckerboard="0"
     inkscape:document-units="pt"
     showgrid="false"
     inkscape:zoom="0.51323064"
     inkscape:cx="-8.7679878"
     inkscape:cy="392.61101"
     inkscape:window-width="1848"
     inkscape:window-height="1016"
     inkscape:window-x="72"
     inkscape:window-y="27"
     inkscape:window-maximized="1"
     inkscape:current-layer="g844"
     units="px" />
  <g
     transform="matrix(0.1,0,0,-0.1,-1542.5948,1941.7265)"
     fill="rgb(0,113,189)"
     stroke="none"
     id="g844">
    <ellipse
       style="fill:#ffffff;stroke-width:0.948829;stroke-linecap:round"
       id="path931"
       cx="15510.047"
       cy="-19319.805"
       transform="scale(1,-1)"
       rx="64.308258"
       ry="77.418762" />
    <path
       d="m 15502.969,19416.979 c -19.631,-2.246 -37.299,-11.935 -51.27,-28.123 -11.451,-13.275 -19.631,-30.173 -23.427,-48.49 -1.93,-9.372 -2.355,-13.667 -2.322,-24.814 0,-10.478 0.261,-13.392 1.964,-22.531 4.088,-22.056 15.147,-46.951 31.408,-70.82 12.794,-18.828 30.953,-39.823 47.182,-54.673 l 3.728,-3.388 3.273,2.955 c 17.635,16.11 36.023,37.577 49.306,57.586 14.823,22.374 24.835,44.826 29.186,65.583 4.777,22.845 3.207,45.731 -4.613,66.844 -10.602,28.675 -32.392,50.339 -57.847,57.547 -7.558,2.126 -19.173,3.151 -26.568,2.324 z m 11.256,-22.057 c 15.606,-1.378 29.152,-8.706 40.081,-21.743 9.585,-11.463 15.802,-26.155 17.896,-42.383 0.72,-5.633 0.72,-16.583 0,-22.138 -2.846,-21.624 -12.695,-40.059 -27.844,-52.11 -5.561,-4.412 -12.203,-7.918 -18.649,-9.848 -6.053,-1.812 -7.787,-2.048 -15.869,-2.048 -7.034,0.04 -8.015,0.115 -11.779,1.103 -27.286,6.971 -46.852,32.693 -50.092,65.819 -0.49,4.923 -0.229,16.11 0.491,20.916 3.141,21.112 13.022,38.955 28.072,50.772 8.246,6.459 19.174,10.832 29.186,11.66 1.996,0.155 3.697,0.315 3.796,0.315 0.1,0.04 2.224,-0.116 4.711,-0.315 z"
       id="path824"
       style="stroke-width:0.0358993" />
  </g>
</svg>
