<?xml version="1.0" encoding="UTF-8" standalone="no"?>
<svg
   version="1.0"
   width="30"
   height="40"
   viewBox="0 0 16.875 22.5"
   preserveAspectRatio="xMidYMid meet"
   id="svg846"
   sodipodi:docname="pin3.svg"
   inkscape:version="1.1.1 (1:1.1+202109281949+c3084ef5ed)"
   xmlns:inkscape="http://www.inkscape.org/namespaces/inkscape"
   xmlns:sodipodi="http://sodipodi.sourceforge.net/DTD/sodipodi-0.dtd"
   xmlns="http://www.w3.org/2000/svg"
   xmlns:svg="http://www.w3.org/2000/svg">
  <defs
     id="defs850" />
  <sodipodi:namedview
     id="namedview848"
     pagecolor="#ffffff"
     bordercolor="#666666"
     borderopacity="1.0"
     inkscape:pageshadow="2"
     inkscape:pageopacity="0.0"
     inkscape:pagecheckerboard="0"
     inkscape:document-units="pt"
     showgrid="false"
     inkscape:zoom="0.51323064"
     inkscape:cx="-8.7679878"
     inkscape:cy="392.61101"
     inkscape:window-width="1848"
     inkscape:window-height="1016"
     inkscape:window-x="72"
     inkscape:window-y="27"
     inkscape:window-maximized="1"
     inkscape:current-layer="g844"
     units="px" />
  <g
     transform="matrix(0.1,0,0,-0.1,-1542.5948,1941.7265)"
     fill="rgb(0,113,189)"
     stroke="none"
     id="g844">
    <ellipse
       style="fill:#ffffff;stroke-width:0.894565;stroke-linecap:round"
       id="path931"
       cx="15510.047"
       cy="-19330.635"
       transform="scale(1,-1)"
       rx="64.308258"
       ry="68.816826" />
    <path
       d="m 15502.969,19417.011 c -19.631,-1.996 -37.299,-10.609 -51.27,-24.999 -11.451,-11.8 -19.631,-26.82 -23.427,-43.101 -1.93,-8.332 -2.355,-12.149 -2.322,-22.058 0,-9.314 0.261,-11.904 1.964,-20.027 4.088,-19.606 15.147,-41.735 31.408,-62.952 12.794,-16.736 30.953,-35.398 47.182,-48.598 l 3.728,-3.011 3.273,2.626 c 17.635,14.32 36.023,33.402 49.306,51.188 14.823,19.888 24.835,39.845 29.186,58.296 4.777,20.307 3.207,40.65 -4.613,59.417 -10.602,25.489 -32.392,44.746 -57.847,51.153 -7.558,1.89 -19.173,2.801 -26.568,2.066 z m 11.256,-19.607 c 15.606,-1.225 29.152,-7.738 40.081,-19.327 9.585,-10.189 15.802,-23.249 17.896,-37.674 0.72,-5.007 0.72,-14.74 0,-19.677 -2.846,-19.222 -12.695,-35.608 -27.844,-46.321 -5.561,-3.922 -12.203,-7.038 -18.649,-8.754 -6.053,-1.61 -7.787,-1.82 -15.869,-1.82 -7.034,0.04 -8.015,0.105 -11.779,0.98 -27.286,6.197 -46.852,29.061 -50.092,58.506 -0.49,4.377 -0.229,14.32 0.491,18.592 3.141,18.766 13.022,34.627 28.072,45.131 8.246,5.742 19.174,9.628 29.186,10.364 1.996,0.139 3.697,0.28 3.796,0.28 0.1,0.04 2.224,-0.105 4.711,-0.28 z"
       id="path824"
       style="stroke-width:0.0338462" />
  </g>
</svg>
