<?xml version="1.0" encoding="UTF-8" standalone="no"?>
<svg
   version="1.0"
   width="30"
   height="35"
   viewBox="0 0 16.875 19.6875"
   preserveAspectRatio="xMidYMid meet"
   id="svg846"
   sodipodi:docname="pin4.svg"
   inkscape:version="1.1.1 (1:1.1+202109281949+c3084ef5ed)"
   xmlns:inkscape="http://www.inkscape.org/namespaces/inkscape"
   xmlns:sodipodi="http://sodipodi.sourceforge.net/DTD/sodipodi-0.dtd"
   xmlns="http://www.w3.org/2000/svg"
   xmlns:svg="http://www.w3.org/2000/svg">
  <defs
     id="defs850" />
  <sodipodi:namedview
     id="namedview848"
     pagecolor="#ffffff"
     bordercolor="#666666"
     borderopacity="1.0"
     inkscape:pageshadow="2"
     inkscape:pageopacity="0.0"
     inkscape:pagecheckerboard="0"
     inkscape:document-units="pt"
     showgrid="false"
     inkscape:zoom="0.51323064"
     inkscape:cx="-8.7679878"
     inkscape:cy="392.61101"
     inkscape:window-width="1848"
     inkscape:window-height="1016"
     inkscape:window-x="72"
     inkscape:window-y="27"
     inkscape:window-maximized="1"
     inkscape:current-layer="g844"
     units="px" />
  <g
     transform="matrix(0.1,0,0,-0.1,-1542.5948,1941.7265)"
     fill="rgb(0,113,189)"
     stroke="none"
     id="g844">
    <ellipse
       style="fill:#ffffff;stroke-width:0.836789;stroke-linecap:round"
       id="path931"
       cx="15510.047"
       cy="-19341.463"
       transform="scale(1,-1)"
       rx="64.308258"
       ry="60.214687" />
    <path
       d="m 15502.969,19417.043 c -19.631,-1.747 -37.299,-9.283 -51.27,-21.874 -11.451,-10.325 -19.631,-23.468 -23.427,-37.714 -1.93,-7.29 -2.355,-10.63 -2.322,-19.3 0,-8.15 0.261,-10.416 1.964,-17.524 4.088,-17.155 15.147,-36.518 31.408,-55.083 12.794,-14.644 30.953,-30.973 47.182,-42.523 l 3.728,-2.635 3.273,2.298 c 17.635,12.53 36.023,29.227 49.306,44.789 14.823,17.402 24.835,34.865 29.186,51.009 4.777,17.769 3.207,35.569 -4.613,51.99 -10.602,22.303 -32.392,39.153 -57.847,44.759 -7.558,1.654 -19.173,2.451 -26.568,1.808 z m 11.256,-17.156 c 15.606,-1.072 29.152,-6.771 40.081,-16.911 9.585,-8.916 15.802,-20.343 17.896,-32.965 0.72,-4.381 0.72,-12.898 0,-17.218 -2.846,-16.819 -12.695,-31.157 -27.844,-40.53 -5.561,-3.432 -12.203,-6.159 -18.649,-7.66 -6.053,-1.409 -7.787,-1.593 -15.869,-1.593 -7.034,0.03 -8.015,0.09 -11.779,0.858 -27.286,5.422 -46.852,25.428 -50.092,51.193 -0.49,3.829 -0.229,12.53 0.491,16.268 3.141,16.42 13.022,30.298 28.072,39.489 8.246,5.024 19.174,8.425 29.186,9.069 1.996,0.121 3.697,0.245 3.796,0.245 0.1,0.03 2.224,-0.09 4.711,-0.245 z"
       id="path824"
       style="stroke-width:0.0316602" />
  </g>
</svg>
