<?xml version="1.0" encoding="UTF-8" standalone="no"?>
<svg
   version="1.0"
 width="100%" height="100%" viewBox="0 0 3600 3000" 
   preserveAspectRatio="xMidYMid meet"
   id="svg846"
   sodipodi:docname="Cryogenic-PIN-3-without-image.svg"
   inkscape:version="1.1.1 (c3084ef, 2021-09-22)"
   xmlns:inkscape="http://www.inkscape.org/namespaces/inkscape"
   xmlns:sodipodi="http://sodipodi.sourceforge.net/DTD/sodipodi-0.dtd"
   xmlns="http://www.w3.org/2000/svg"
   xmlns:svg="http://www.w3.org/2000/svg">
  <defs
     id="defs850" />
  <sodipodi:namedview
     id="namedview848"
     pagecolor="#ffffff"
     bordercolor="#666666"
     borderopacity="1.0"
     inkscape:pageshadow="2"
     inkscape:pageopacity="0.0"
     inkscape:pagecheckerboard="0"
     inkscape:document-units="pt"
     showgrid="false"
     inkscape:zoom="0.51323064"
     inkscape:cx="2329.3621"
     inkscape:cy="1803.2828"
     inkscape:window-width="1312"
     inkscape:window-height="793"
     inkscape:window-x="0"
     inkscape:window-y="205"
     inkscape:window-maximized="0"
     inkscape:current-layer="g844" />
  <g
     transform="translate(0.000000,3000.000000) scale(0.100000,-0.100000)"
     fill="rgb(0,113,189)"
     stroke="none"
     id="g844">
    <path
       d="M17780 19410 c-600 -57 -1140 -303 -1567 -714 -350 -337 -600 -766 -716 -1231 -59 -238 -72 -347 -71 -630 0 -266 8 -340 60 -572 125 -560 463 -1192 960 -1798 391 -478 946 -1011 1442 -1388 l114 -86 100 75 c539 409 1101 954 1507 1462 453 568 759 1138 892 1665 146 580 98 1161 -141 1697 -324 728 -990 1278 -1768 1461 -231 54 -586 80 -812 59z m344 -560 c477 -35 891 -221 1225 -552 293 -291 483 -664 547 -1076 22 -143 22 -421 0 -562 -87 -549 -388 -1017 -851 -1323 -170 -112 -373 -201 -570 -250 -185 -46 -238 -52 -485 -52 -215 1 -245 3 -360 28 -834 177 -1432 830 -1531 1671 -15 125 -7 409 15 531 96 536 398 989 858 1289 252 164 586 275 892 296 61 4 113 8 116 8 3 1 68 -3 144 -8z"
       id="path824" />
  </g>
</svg>
