<?xml version="1.0" encoding="UTF-8" standalone="no"?>
<svg
   version="1.0"
   width="35"
   height="50"
   viewBox="0 0 19.6875 28.125"
   preserveAspectRatio="xMidYMid meet"
   id="svg846"
   sodipodi:docname="emptyPin1.svg"
   inkscape:version="1.1.1 (1:1.1+202109281949+c3084ef5ed)"
   xmlns:inkscape="http://www.inkscape.org/namespaces/inkscape"
   xmlns:sodipodi="http://sodipodi.sourceforge.net/DTD/sodipodi-0.dtd"
   xmlns="http://www.w3.org/2000/svg"
   xmlns:svg="http://www.w3.org/2000/svg">
  <defs
     id="defs850" />
  <sodipodi:namedview
     id="namedview848"
     pagecolor="#ffffff"
     bordercolor="#666666"
     borderopacity="1.0"
     inkscape:pageshadow="2"
     inkscape:pageopacity="0.0"
     inkscape:pagecheckerboard="0"
     inkscape:document-units="pt"
     showgrid="false"
     inkscape:zoom="0.51323064"
     inkscape:cx="-8.7679878"
     inkscape:cy="392.61101"
     inkscape:window-width="1848"
     inkscape:window-height="1016"
     inkscape:window-x="72"
     inkscape:window-y="27"
     inkscape:window-maximized="1"
     inkscape:current-layer="g844"
     units="px" />
  <g
     transform="matrix(0.1,0,0,-0.1,-1542.5948,1941.7265)"
     fill="rgb(0,113,189)"
     stroke="none"
     id="g844">
    <path
       d="m 15515.806,19416.947 c -22.903,-2.495 -43.516,-13.261 -59.815,-31.248 -13.36,-14.75 -22.903,-33.525 -27.332,-53.877 -2.251,-10.414 -2.747,-15.186 -2.709,-27.571 0,-11.643 0.305,-14.88 2.292,-25.035 4.769,-24.507 17.671,-52.168 36.642,-78.689 14.926,-20.92 36.112,-44.248 55.046,-60.748 l 4.349,-3.764 3.819,3.283 c 20.574,17.9 42.026,41.753 57.523,63.985 17.293,24.86 28.974,49.806 34.05,72.87 5.573,25.383 3.742,50.812 -5.382,74.271 -12.369,31.861 -37.79,55.932 -67.488,63.941 -8.817,2.362 -22.368,3.501 -30.995,2.582 z m 13.132,-24.508 c 18.206,-1.531 34.01,-9.673 46.761,-24.158 11.182,-12.737 18.435,-29.062 20.878,-47.093 0.84,-6.259 0.84,-18.425 0,-24.597 -3.32,-24.027 -14.811,-44.51 -32.484,-57.9 -6.488,-4.903 -14.237,-8.798 -21.758,-10.943 -7.061,-2.013 -9.084,-2.275 -18.513,-2.275 -8.207,0.04 -9.351,0.128 -13.742,1.225 -31.834,7.746 -54.661,36.326 -58.441,73.133 -0.572,5.47 -0.267,17.9 0.573,23.24 3.664,23.457 15.192,43.283 32.75,56.413 9.621,7.177 22.37,12.035 34.051,12.955 2.328,0.173 4.313,0.35 4.428,0.35 0.117,0.04 2.595,-0.128 5.497,-0.35 z"
       id="path824"
       style="stroke-width:0.0408731" />
    <ellipse
       style="fill:#0071bd;fill-opacity:1;stroke-width:1.08028;stroke-linecap:round"
       id="path931"
       cx="15524.393"
       cy="-19308.689"
       transform="scale(1,-1)"
       rx="75.026085"
       ry="86.020943" />
    <ellipse
       style="fill:#ffffff;stroke-width:1.06651;stroke-linecap:round"
       id="ellipse1553"
       cx="15524.386"
       cy="-19291.613"
       transform="scale(1,-1)"
       rx="73.124992"
       ry="86.020943" />
  </g>
</svg>
