<?xml version="1.0" encoding="UTF-8" standalone="no"?>
<svg
   version="1.0"
   width="30"
   height="50"
   viewBox="0 0 16.875 28.125"
   preserveAspectRatio="xMidYMid meet"
   id="svg846"
   sodipodi:docname="pin6.svg"
   inkscape:version="1.1.1 (1:1.1+202109281949+c3084ef5ed)"
   xmlns:inkscape="http://www.inkscape.org/namespaces/inkscape"
   xmlns:sodipodi="http://sodipodi.sourceforge.net/DTD/sodipodi-0.dtd"
   xmlns="http://www.w3.org/2000/svg"
   xmlns:svg="http://www.w3.org/2000/svg">
  <defs
     id="defs850" />
  <sodipodi:namedview
     id="namedview848"
     pagecolor="#ffffff"
     bordercolor="#666666"
     borderopacity="1.0"
     inkscape:pageshadow="2"
     inkscape:pageopacity="0.0"
     inkscape:pagecheckerboard="0"
     inkscape:document-units="pt"
     showgrid="false"
     inkscape:zoom="0.51323064"
     inkscape:cx="-8.7679878"
     inkscape:cy="392.61101"
     inkscape:window-width="1848"
     inkscape:window-height="1016"
     inkscape:window-x="72"
     inkscape:window-y="27"
     inkscape:window-maximized="1"
     inkscape:current-layer="g844"
     units="px" />
  <g
     transform="matrix(0.1,0,0,-0.1,-1542.5948,1941.7265)"
     fill="rgb(0,113,189)"
     stroke="none"
     id="g844">
    <ellipse
       style="fill:#ffffff;stroke-width:1.00015;stroke-linecap:round"
       id="path931"
       cx="15510.047"
       cy="-19308.977"
       transform="scale(1,-1)"
       rx="64.308258"
       ry="86.020866" />
    <path
       d="m 15502.969,19416.947 c -19.631,-2.495 -37.299,-13.261 -51.27,-31.248 -11.451,-14.75 -19.631,-33.525 -23.427,-53.877 -1.93,-10.414 -2.355,-15.186 -2.322,-27.571 0,-11.643 0.261,-14.88 1.964,-25.035 4.088,-24.507 15.147,-52.168 31.408,-78.689 12.794,-20.92 30.953,-44.248 47.182,-60.748 l 3.728,-3.764 3.273,3.283 c 17.635,17.9 36.023,41.753 49.306,63.985 14.823,24.86 24.835,49.806 29.186,72.87 4.777,25.383 3.207,50.812 -4.613,74.271 -10.602,31.861 -32.392,55.932 -57.847,63.941 -7.558,2.362 -19.173,3.501 -26.568,2.582 z m 11.256,-24.508 c 15.606,-1.531 29.152,-9.673 40.081,-24.158 9.585,-12.737 15.802,-29.062 17.896,-47.093 0.72,-6.259 0.72,-18.425 0,-24.597 -2.846,-24.027 -12.695,-44.51 -27.844,-57.9 -5.561,-4.903 -12.203,-8.798 -18.649,-10.943 -6.053,-2.013 -7.787,-2.275 -15.869,-2.275 -7.034,0.04 -8.015,0.128 -11.779,1.225 -27.286,7.746 -46.852,36.326 -50.092,73.133 -0.49,5.47 -0.229,17.9 0.491,23.24 3.141,23.457 13.022,43.283 28.072,56.413 8.246,7.177 19.174,12.035 29.186,12.955 1.996,0.173 3.697,0.35 3.796,0.35 0.1,0.04 2.224,-0.128 4.711,-0.35 z"
       id="path824"
       style="stroke-width:0.0378412" />
  </g>
</svg>
