<?xml version="1.0" encoding="UTF-8" standalone="no"?>
<svg
   version="1.0"
   width="35"
   height="50"
   viewBox="0 0 26.25 37.500001"
   preserveAspectRatio="xMidYMid meet"
   id="svg31"
   sodipodi:docname="smpin3.svg"
   inkscape:version="1.1.1 (1:1.1+202109281949+c3084ef5ed)"
   xmlns:inkscape="http://www.inkscape.org/namespaces/inkscape"
   xmlns:sodipodi="http://sodipodi.sourceforge.net/DTD/sodipodi-0.dtd"
   xmlns="http://www.w3.org/2000/svg"
   xmlns:svg="http://www.w3.org/2000/svg">
  <defs
     id="defs35" />
  <sodipodi:namedview
     id="namedview33"
     pagecolor="#ffffff"
     bordercolor="#666666"
     borderopacity="1.0"
     inkscape:pageshadow="2"
     inkscape:pageopacity="0.0"
     inkscape:pagecheckerboard="0"
     inkscape:document-units="px"
     showgrid="false"
     inkscape:zoom="0.6241185"
     inkscape:cx="-119.36836"
     inkscape:cy="518.33105"
     inkscape:window-width="1848"
     inkscape:window-height="1016"
     inkscape:window-x="72"
     inkscape:window-y="27"
     inkscape:window-maximized="1"
     inkscape:current-layer="g29"
     units="px" />
  <g
     transform="matrix(0.1,0,0,-0.1,-1542.5948,1941.7265)"
     fill="rgb(0,113,189)"
     stroke="none"
     id="g29">
    <ellipse
       style="fill:#ffffff;fill-opacity:1;stroke-width:1.91131;stroke-linecap:round"
       id="path198"
       cx="15557.748"
       cy="-19272.459"
       transform="scale(1,-1)"
       rx="100.60964"
       ry="115.3542" />
    <path
       d="m 15545.76,19416.841 c -30.539,-3.326 -58.023,-17.682 -79.756,-41.666 -17.815,-19.665 -30.536,-44.698 -36.439,-71.833 -3.006,-13.889 -3.666,-20.249 -3.615,-36.764 0,-15.521 0.406,-19.84 3.055,-33.378 6.36,-32.678 23.564,-69.558 48.86,-104.921 19.901,-27.895 48.146,-58.997 73.39,-80.997 l 5.803,-5.017 5.089,4.376 c 27.433,23.867 56.035,55.67 76.7,85.314 23.053,33.146 38.628,66.407 45.398,97.161 7.432,33.844 4.987,67.748 -7.175,99.027 -16.492,42.481 -50.388,74.577 -89.985,85.255 -11.757,3.151 -29.827,4.668 -41.325,3.443 z m 17.507,-32.678 c 24.276,-2.042 45.346,-12.897 62.346,-32.212 14.914,-16.981 24.582,-38.748 27.84,-62.79 1.12,-8.345 1.12,-24.567 0,-32.795 -4.427,-32.036 -19.748,-59.345 -43.312,-77.202 -8.654,-6.536 -18.984,-11.729 -29.013,-14.589 -9.415,-2.685 -12.112,-3.035 -24.682,-3.035 -10.94,0.06 -12.469,0.176 -18.323,1.634 -42.446,10.329 -72.882,48.435 -77.919,97.511 -0.763,7.294 -0.36,23.866 0.76,30.986 4.886,31.278 20.258,57.711 43.671,75.218 12.826,9.571 29.825,16.048 45.4,17.274 3.103,0.233 5.749,0.466 5.903,0.466 0.147,0.06 3.46,-0.174 7.329,-0.466 z"
       id="path9"
       style="stroke-width:0.0544975" />
    <path
       d="m 15546.572,19369.574 c -29.465,-4.259 -54.815,-24.625 -67.893,-54.62 -9.366,-21.416 -11.606,-45.517 -6.363,-68.8 1.171,-5.193 2.646,-10.037 2.695,-8.928 0,0.176 -0.56,2.8 -1.218,5.837 -2.037,8.752 -2.546,14.12 -2.546,24.974 0,10.971 0.458,15.347 2.747,25.443 7.179,31.336 28.401,57.362 55.225,67.691 10.229,3.909 13.944,4.551 26.973,4.551 9.415,0.06 12.623,-0.174 16.287,-0.991 34.608,-8.053 61.075,-38.397 67.995,-77.845 2.343,-13.422 1.832,-30.87 -1.324,-44.699 -0.659,-2.919 -1.12,-5.427 -1.018,-5.544 0.359,-0.408 2.8,9.571 3.92,15.756 0.917,5.076 1.12,7.994 1.12,18.557 0,10.853 -0.145,13.362 -1.12,18.615 -5.089,26.725 -17.252,47.966 -36.134,62.963 -10.281,8.171 -21.633,13.48 -34.765,16.224 -5.035,1.05 -19.592,1.516 -24.581,0.816 z"
       id="path11"
       style="stroke-width:0.0544975" />
    <path
       d="m 15544.74,19357.67 c -10.791,-2.218 -20.104,-6.478 -28.704,-13.131 -3.055,-2.391 -10.384,-9.394 -9.824,-9.394 0.09,0 2.443,1.75 5.243,3.911 24.125,18.556 55.12,20.947 80.871,6.185 4.226,-2.453 11.758,-7.704 14.303,-10.038 0.56,-0.525 -0.355,0.584 -2.035,2.45 -8.094,8.87 -19.851,15.815 -32.573,19.199 -5.903,1.577 -21.377,1.984 -27.281,0.818 z"
       id="path13"
       style="stroke-width:0.0544975" />
    <path
       d="m 15545.048,19347.05 c -11.251,-2.335 -24.941,-10.271 -31.609,-18.323 -1.169,-1.402 -0.56,-1.11 2.8,1.516 7.94,6.128 17.509,10.621 27.281,12.896 6.769,1.518 20.104,1.4 27.024,-0.291 9.415,-2.335 18.728,-6.769 26.365,-12.663 l 3.56,-2.684 -2.035,2.392 c -4.274,5.136 -13.691,11.438 -21.629,14.589 -8.704,3.384 -22.342,4.493 -31.757,2.568 z"
       id="path15"
       style="stroke-width:0.0544975" />
    <path
       d="m 15550.849,19337.421 c -10.535,-1.168 -23.667,-7.819 -29.519,-14.822 l -1.783,-2.16 2.8,2.043 c 18.527,13.363 41.48,15.114 60.87,4.552 2.8,-1.518 6.463,-3.793 8.143,-4.961 l 3.003,-2.158 -2.543,2.684 c -10.384,10.912 -25.956,16.514 -40.971,14.822 z"
       id="path17"
       style="stroke-width:0.0544975" />
    <path
       d="m 15551.355,19326.975 c -8.855,-1.225 -17.455,-5.486 -23.664,-11.846 -1.984,-1.984 -1.832,-1.984 4.071,1.4 7.686,4.378 14.098,6.302 22.19,6.771 10.738,0.582 22.447,-2.744 30.996,-8.871 l 2.289,-1.635 -1.272,1.635 c -3.103,3.851 -11.806,9.395 -17.509,11.087 -3.306,0.935 -10.481,2.101 -12.518,1.985 -0.714,-0.06 -2.751,-0.292 -4.583,-0.526 z"
       id="path19"
       style="stroke-width:0.0544975" />
    <path
       d="m 15551.306,19316.414 c -6.106,-0.993 -12.52,-4.261 -16.489,-8.404 l -2.037,-2.1 2.545,1.4 c 7.43,4.143 15.37,6.011 23.564,5.484 6.566,-0.407 11.861,-1.866 17.813,-5.076 l 4.426,-2.334 -2.034,1.983 c -4.935,4.846 -11.095,7.996 -17.764,9.047 -4.426,0.699 -5.903,0.699 -10.024,0 z"
       id="path21"
       style="stroke-width:0.0544975" />
    <path
       d="m 15551.001,19305.675 c -3.561,-0.875 -8.652,-3.733 -10.332,-5.834 l -1.172,-1.4 2.546,1.108 c 8.806,3.851 19.135,3.851 28.91,0.06 l 3.054,-1.227 -1.783,1.751 c -2.545,2.45 -6.72,4.611 -10.586,5.601 -4.123,0.993 -6.515,0.993 -10.637,-0.06 z"
       id="path23"
       style="stroke-width:0.0544975" />
    <path
       d="m 15497.917,19291.554 c -0.765,-0.35 -1.577,-0.933 -1.729,-1.284 -0.205,-0.349 -1.325,-0.641 -2.494,-0.641 -3.768,0 -5.497,-2.451 -7.432,-10.447 -3.92,-16.28 -1.12,-41.78 4.935,-44.99 1.631,-0.817 1.68,-0.992 1.323,-3.502 -0.457,-3.793 -1.474,-5.66 -3.257,-6.127 -1.374,-0.349 -1.526,-0.583 -1.526,-2.684 v -2.276 h 4.02 c 3.666,0 4.072,0.118 4.378,1.226 0.511,1.693 3.206,5.077 4.886,6.127 1.883,1.109 1.985,1.05 1.985,-0.642 0,-1.46 0.07,-1.46 4.326,-1.46 h 4.326 v 3.211 3.209 h 45.045 45.04 v -3.209 -3.211 h 4.072 c 4.02,0 4.072,0 4.072,1.46 0,0.816 0.09,1.459 0.263,1.459 1.475,0 5.649,-4.201 6.818,-6.828 0.56,-1.226 0.969,-1.342 4.379,-1.342 h 3.818 v 2.276 c 0,1.985 -0.147,2.277 -1.631,2.743 -1.831,0.642 -2.849,2.975 -2.899,6.652 -0.07,1.692 0.263,2.218 1.476,3.034 1.934,1.285 4.272,6.712 5.446,12.78 1.169,5.894 1.169,22.992 0,28.885 -1.934,9.688 -4.174,13.656 -7.838,13.656 -0.968,0 -2.444,0.525 -3.208,1.167 -1.476,1.167 -2.086,1.225 -59.341,1.342 -42.705,0.06 -58.226,-0.06 -59.243,-0.584 z m 1.12,-2.334 c -5.142,-8.404 -5.751,-38.689 -1.071,-53.044 1.426,-4.318 2.294,-4.902 7.686,-4.902 3.666,0 4.48,-0.174 4.48,-0.875 0,-0.702 -0.765,-0.876 -3.817,-0.876 -5.192,0 -8.755,-2.216 -10.74,-6.535 -0.663,-1.459 -1.018,-1.634 -3.512,-1.634 -2.137,0 -2.8,0.175 -2.8,0.876 0,0.524 0.457,0.876 1.174,0.876 2.849,0 4.274,7.467 3.355,17.914 -0.812,9.277 -0.812,30.344 -0.07,35.188 1.221,7.235 2.747,12.253 4.072,13.478 1.781,1.577 2.391,1.402 1.221,-0.466 z m 118.433,-4.377 c 2.24,-8.578 2.749,-14.705 2.29,-29.353 -0.711,-23.282 -0.61,-27.717 0.61,-30.052 0.56,-1.167 1.475,-2.1 2.138,-2.217 0.612,-0.117 1.12,-0.584 1.12,-1.05 0,-0.584 -0.712,-0.817 -2.8,-0.817 -1.578,0 -2.798,0.233 -2.798,0.584 0,1.108 -4.275,6.011 -5.955,6.769 -0.917,0.466 -3.36,0.816 -5.498,0.816 -3.053,0 -3.815,0.174 -3.815,0.876 0,0.701 0.863,0.875 4.733,0.875 4.274,0 4.886,0.118 5.802,1.342 2.29,2.743 3.818,9.745 4.783,21.766 0.969,12.196 -0.61,27.545 -3.41,33.438 -0.661,1.4 -1.221,2.625 -1.221,2.801 0,0.116 0.661,-0.176 1.426,-0.643 1.169,-0.699 1.68,-1.692 2.595,-5.135 z m -4.683,4.085 c 5.649,-7.001 5.702,-46.8 0.09,-54.969 l -1.017,-1.517 h -54.918 c -30.182,0 -55.275,0.174 -55.732,0.35 -3.103,1.4 -5.752,18.147 -5.192,33.202 0.458,11.73 2.037,20.308 4.277,23.167 0.763,0.993 3.664,1.052 56.136,1.052 h 55.323 z m -118.127,-1.75 c -2.952,-11.497 -3.717,-21.125 -2.903,-35.889 0.306,-5.718 0.714,-11.669 0.92,-13.246 0.261,-2.51 0.203,-2.801 -0.663,-2.626 -1.325,0.292 -4.072,6.828 -5.143,12.197 -1.12,5.835 -1.169,21.24 0,27.426 1.477,8.344 3.258,12.313 5.703,13.013 2.137,0.583 2.441,0.468 2.086,-0.875 z m 127.799,-0.584 c 0.661,-0.7 1.729,-3.267 2.44,-5.778 3.463,-12.721 2.903,-32.56 -1.271,-41.898 -1.018,-2.392 -2.392,-3.909 -2.899,-3.325 -0.146,0.174 -0.07,4.725 0.303,10.094 1.172,19.666 0.307,32.562 -2.8,41.841 -0.356,0.993 -0.204,1.05 1.324,0.701 0.968,-0.176 2.24,-0.935 2.903,-1.635 z m -112.327,-59.405 c 0,-0.292 -1.271,-0.583 -2.8,-0.583 -1.526,0 -2.8,0.291 -2.8,0.583 0,0.35 1.274,0.584 2.8,0.584 1.529,0 2.8,-0.234 2.8,-0.584 z m 98.226,0 c 0,-0.292 -1.271,-0.583 -2.8,-0.583 -1.524,0 -2.796,0.291 -2.796,0.583 0,0.35 1.272,0.584 2.796,0.584 1.529,0 2.8,-0.234 2.8,-0.584 z"
       id="path25"
       style="stroke-width:0.0544975" />
    <path
       d="m 15502.038,19285.661 c -0.863,-1.926 -2.035,-7.937 -2.646,-14.123 -1.017,-10.328 0.147,-26.843 2.392,-33.262 l 0.814,-2.333 h 53.949 53.9 l 0.711,1.925 c 1.019,2.86 2.189,10.329 2.749,17.622 0.763,9.63 -0.458,23.4 -2.494,28.769 l -0.966,2.452 h -53.949 c -51.149,0 -54.003,-0.06 -54.46,-1.05 z"
       id="path27"
       style="stroke-width:0.0544975" />
  </g>
</svg>
