<?xml version="1.0" encoding="UTF-8" standalone="no"?>
<svg
   version="1.0"
   width="30"
   height="50"
   viewBox="0 0 22.5 37.500001"
   preserveAspectRatio="xMidYMid meet"
   id="svg31"
   sodipodi:docname="smpin2.svg"
   inkscape:version="1.1.1 (1:1.1+202109281949+c3084ef5ed)"
   xmlns:inkscape="http://www.inkscape.org/namespaces/inkscape"
   xmlns:sodipodi="http://sodipodi.sourceforge.net/DTD/sodipodi-0.dtd"
   xmlns="http://www.w3.org/2000/svg"
   xmlns:svg="http://www.w3.org/2000/svg">
  <defs
     id="defs35" />
  <sodipodi:namedview
     id="namedview33"
     pagecolor="#ffffff"
     bordercolor="#666666"
     borderopacity="1.0"
     inkscape:pageshadow="2"
     inkscape:pageopacity="0.0"
     inkscape:pagecheckerboard="0"
     inkscape:document-units="px"
     showgrid="false"
     inkscape:zoom="0.6241185"
     inkscape:cx="-119.36836"
     inkscape:cy="518.33105"
     inkscape:window-width="1848"
     inkscape:window-height="1016"
     inkscape:window-x="72"
     inkscape:window-y="27"
     inkscape:window-maximized="1"
     inkscape:current-layer="g29"
     units="px" />
  <g
     transform="matrix(0.1,0,0,-0.1,-1542.5948,1941.7265)"
     fill="rgb(0,113,189)"
     stroke="none"
     id="g29">
    <ellipse
       style="fill:#ffffff;fill-opacity:1;stroke-width:1.76953;stroke-linecap:round"
       id="path198"
       cx="15538.92"
       cy="-19272.459"
       transform="scale(1,-1)"
       rx="86.236984"
       ry="115.3542" />
    <path
       d="m 15528.644,19416.841 c -26.176,-3.326 -49.734,-17.682 -68.362,-41.666 -15.27,-19.665 -26.174,-44.698 -31.234,-71.833 -2.576,-13.889 -3.142,-20.249 -3.098,-36.764 0,-15.521 0.348,-19.84 2.618,-33.378 5.452,-32.678 20.198,-69.558 41.88,-104.921 17.058,-27.895 41.268,-58.997 62.906,-80.997 l 4.974,-5.017 4.362,4.376 c 23.514,23.867 48.03,55.67 65.743,85.314 19.76,33.146 33.11,66.407 38.913,97.161 6.37,33.844 4.274,67.748 -6.15,99.027 -14.136,42.481 -43.19,74.577 -77.13,85.255 -10.078,3.151 -25.566,4.668 -35.422,3.443 z m 15.006,-32.678 c 20.808,-2.042 38.868,-12.897 53.44,-32.212 12.783,-16.981 21.07,-38.748 23.863,-62.79 0.96,-8.345 0.96,-24.567 0,-32.795 -3.795,-32.036 -16.927,-59.345 -37.125,-77.202 -7.418,-6.536 -16.272,-11.729 -24.868,-14.589 -8.07,-2.685 -10.382,-3.035 -21.156,-3.035 -9.378,0.06 -10.688,0.176 -15.706,1.634 -36.382,10.329 -62.47,48.435 -66.788,97.511 -0.654,7.294 -0.308,23.866 0.652,30.986 4.188,31.278 17.364,57.711 37.432,75.218 10.994,9.571 25.564,16.048 38.914,17.274 2.66,0.233 4.928,0.466 5.06,0.466 0.126,0.06 2.966,-0.174 6.282,-0.466 z"
       id="path9"
       style="stroke-width:0.0504549" />
    <path
       d="m 15529.34,19369.574 c -25.256,-4.259 -46.984,-24.625 -58.194,-54.62 -8.028,-21.416 -9.948,-45.517 -5.454,-68.8 1.004,-5.193 2.268,-10.037 2.31,-8.928 0,0.176 -0.48,2.8 -1.044,5.837 -1.746,8.752 -2.182,14.12 -2.182,24.974 0,10.971 0.392,15.347 2.354,25.443 6.154,31.336 24.344,57.362 47.336,67.691 8.768,3.909 11.952,4.551 23.12,4.551 8.07,0.06 10.82,-0.174 13.96,-0.991 29.664,-8.053 52.35,-38.397 58.282,-77.845 2.008,-13.422 1.57,-30.87 -1.135,-44.699 -0.565,-2.919 -0.96,-5.427 -0.873,-5.544 0.308,-0.408 2.4,9.571 3.36,15.756 0.786,5.076 0.96,7.994 0.96,18.557 0,10.853 -0.124,13.362 -0.96,18.615 -4.362,26.725 -14.787,47.966 -30.972,62.963 -8.812,8.171 -18.542,13.48 -29.798,16.224 -4.316,1.05 -16.794,1.516 -21.07,0.816 z"
       id="path11"
       style="stroke-width:0.0504549" />
    <path
       d="m 15527.77,19357.67 c -9.25,-2.218 -17.232,-6.478 -24.604,-13.131 -2.618,-2.391 -8.9,-9.394 -8.42,-9.394 0.08,0 2.094,1.75 4.494,3.911 20.678,18.556 47.246,20.947 69.318,6.185 3.622,-2.453 10.078,-7.704 12.26,-10.038 0.48,-0.525 -0.305,0.584 -1.745,2.45 -6.937,8.87 -17.015,15.815 -27.919,19.199 -5.06,1.577 -18.324,1.984 -23.384,0.818 z"
       id="path13"
       style="stroke-width:0.0504549" />
    <path
       d="m 15528.034,19347.05 c -9.644,-2.335 -21.378,-10.271 -27.094,-18.323 -1.002,-1.402 -0.48,-1.11 2.4,1.516 6.806,6.128 15.008,10.621 23.384,12.896 5.802,1.518 17.232,1.4 23.164,-0.291 8.07,-2.335 16.052,-6.769 22.598,-12.663 l 3.052,-2.684 -1.745,2.392 c -3.663,5.136 -11.735,11.438 -18.539,14.589 -7.46,3.384 -19.15,4.493 -27.22,2.568 z"
       id="path15"
       style="stroke-width:0.0504549" />
    <path
       d="m 15533.006,19337.421 c -9.03,-1.168 -20.286,-7.819 -25.302,-14.822 l -1.528,-2.16 2.4,2.043 c 15.88,13.363 35.554,15.114 52.174,4.552 2.4,-1.518 5.54,-3.793 6.98,-4.961 l 2.574,-2.158 -2.18,2.684 c -8.9,10.912 -22.248,16.514 -35.118,14.822 z"
       id="path17"
       style="stroke-width:0.0504549" />
    <path
       d="m 15533.44,19326.975 c -7.59,-1.225 -14.962,-5.486 -20.284,-11.846 -1.7,-1.984 -1.57,-1.984 3.49,1.4 6.588,4.378 12.084,6.302 19.02,6.771 9.204,0.582 19.24,-2.744 26.568,-8.871 l 1.962,-1.635 -1.09,1.635 c -2.66,3.851 -10.12,9.395 -15.008,11.087 -2.834,0.935 -8.984,2.101 -10.73,1.985 -0.612,-0.06 -2.358,-0.292 -3.928,-0.526 z"
       id="path19"
       style="stroke-width:0.0504549" />
    <path
       d="m 15533.398,19316.414 c -5.234,-0.993 -10.732,-4.261 -14.134,-8.404 l -1.746,-2.1 2.182,1.4 c 6.368,4.143 13.174,6.011 20.198,5.484 5.628,-0.407 10.166,-1.866 15.268,-5.076 l 3.794,-2.334 -1.744,1.983 c -4.23,4.846 -9.51,7.996 -15.226,9.047 -3.794,0.699 -5.06,0.699 -8.592,0 z"
       id="path21"
       style="stroke-width:0.0504549" />
    <path
       d="m 15533.136,19305.675 c -3.052,-0.875 -7.416,-3.733 -8.856,-5.834 l -1.004,-1.4 2.182,1.108 c 7.548,3.851 16.402,3.851 24.78,0.06 l 2.618,-1.227 -1.528,1.751 c -2.182,2.45 -5.76,4.611 -9.074,5.601 -3.534,0.993 -5.584,0.993 -9.118,-0.06 z"
       id="path23"
       style="stroke-width:0.0504549" />
    <path
       d="m 15487.636,19291.554 c -0.656,-0.35 -1.352,-0.933 -1.482,-1.284 -0.176,-0.349 -1.136,-0.641 -2.138,-0.641 -3.23,0 -4.712,-2.451 -6.37,-10.447 -3.36,-16.28 -0.96,-41.78 4.23,-44.99 1.398,-0.817 1.44,-0.992 1.134,-3.502 -0.392,-3.793 -1.264,-5.66 -2.792,-6.127 -1.178,-0.349 -1.308,-0.583 -1.308,-2.684 v -2.276 h 3.446 c 3.142,0 3.49,0.118 3.752,1.226 0.438,1.693 2.748,5.077 4.188,6.127 1.614,1.109 1.702,1.05 1.702,-0.642 0,-1.46 0.06,-1.46 3.708,-1.46 h 3.708 v 3.211 3.209 h 38.61 38.606 v -3.209 -3.211 h 3.49 c 3.446,0 3.49,0 3.49,1.46 0,0.816 0.08,1.459 0.226,1.459 1.264,0 4.842,-4.201 5.844,-6.828 0.48,-1.226 0.83,-1.342 3.753,-1.342 h 3.273 v 2.276 c 0,1.985 -0.126,2.277 -1.398,2.743 -1.57,0.642 -2.442,2.975 -2.485,6.652 -0.06,1.692 0.225,2.218 1.265,3.034 1.658,1.285 3.662,6.712 4.668,12.78 1.002,5.894 1.002,22.992 0,28.885 -1.658,9.688 -3.578,13.656 -6.718,13.656 -0.83,0 -2.095,0.525 -2.75,1.167 -1.265,1.167 -1.788,1.225 -50.864,1.342 -36.604,0.06 -49.908,-0.06 -50.78,-0.584 z m 0.96,-2.334 c -4.408,-8.404 -4.93,-38.689 -0.918,-53.044 1.222,-4.318 1.966,-4.902 6.588,-4.902 3.142,0 3.84,-0.174 3.84,-0.875 0,-0.702 -0.656,-0.876 -3.272,-0.876 -4.45,0 -7.504,-2.216 -9.206,-6.535 -0.568,-1.459 -0.872,-1.634 -3.01,-1.634 -1.832,0 -2.4,0.175 -2.4,0.876 0,0.524 0.392,0.876 1.006,0.876 2.442,0 3.664,7.467 2.876,17.914 -0.696,9.277 -0.696,30.344 -0.06,35.188 1.047,7.235 2.355,12.253 3.49,13.478 1.527,1.577 2.05,1.402 1.047,-0.466 z m 101.514,-4.377 c 1.92,-8.578 2.356,-14.705 1.963,-29.353 -0.61,-23.282 -0.523,-27.717 0.523,-30.052 0.48,-1.167 1.264,-2.1 1.832,-2.217 0.525,-0.117 0.96,-0.584 0.96,-1.05 0,-0.584 -0.61,-0.817 -2.4,-0.817 -1.352,0 -2.398,0.233 -2.398,0.584 0,1.108 -3.664,6.011 -5.104,6.769 -0.786,0.466 -2.88,0.816 -4.713,0.816 -2.617,0 -3.27,0.174 -3.27,0.876 0,0.701 0.74,0.875 4.057,0.875 3.663,0 4.188,0.118 4.973,1.342 1.963,2.743 3.273,9.745 4.1,21.766 0.83,12.196 -0.523,27.545 -2.923,33.438 -0.567,1.4 -1.047,2.625 -1.047,2.801 0,0.116 0.567,-0.176 1.223,-0.643 1.002,-0.699 1.44,-1.692 2.224,-5.135 z m -4.014,4.085 c 4.842,-7.001 4.887,-46.8 0.08,-54.969 l -0.872,-1.517 h -47.073 c -25.87,0 -47.378,0.174 -47.77,0.35 -2.66,1.4 -4.93,18.147 -4.45,33.202 0.392,11.73 1.746,20.308 3.666,23.167 0.654,0.993 3.14,1.052 48.116,1.052 h 47.42 z m -101.252,-1.75 c -2.53,-11.497 -3.186,-21.125 -2.488,-35.889 0.262,-5.718 0.612,-11.669 0.788,-13.246 0.224,-2.51 0.174,-2.801 -0.568,-2.626 -1.136,0.292 -3.49,6.828 -4.408,12.197 -0.96,5.835 -1.002,21.24 0,27.426 1.266,8.344 2.792,12.313 4.888,13.013 1.832,0.583 2.092,0.468 1.788,-0.875 z m 109.542,-0.584 c 0.567,-0.7 1.482,-3.267 2.092,-5.778 2.968,-12.721 2.488,-32.56 -1.09,-41.898 -0.872,-2.392 -2.05,-3.909 -2.485,-3.325 -0.125,0.174 -0.06,4.725 0.26,10.094 1.005,19.666 0.263,32.562 -2.4,41.841 -0.305,0.993 -0.175,1.05 1.135,0.701 0.83,-0.176 1.92,-0.935 2.488,-1.635 z m -96.28,-59.405 c 0,-0.292 -1.09,-0.583 -2.4,-0.583 -1.308,0 -2.4,0.291 -2.4,0.583 0,0.35 1.092,0.584 2.4,0.584 1.31,0 2.4,-0.234 2.4,-0.584 z m 84.194,0 c 0,-0.292 -1.09,-0.583 -2.4,-0.583 -1.307,0 -2.397,0.291 -2.397,0.583 0,0.35 1.09,0.584 2.397,0.584 1.31,0 2.4,-0.234 2.4,-0.584 z"
       id="path25"
       style="stroke-width:0.0504549" />
    <path
       d="m 15491.168,19285.661 c -0.74,-1.926 -1.744,-7.937 -2.268,-14.123 -0.872,-10.328 0.126,-26.843 2.05,-33.262 l 0.698,-2.333 h 46.242 46.2 l 0.61,1.925 c 0.873,2.86 1.876,10.329 2.356,17.622 0.654,9.63 -0.393,23.4 -2.138,28.769 l -0.828,2.452 h -46.242 c -43.842,0 -46.288,-0.06 -46.68,-1.05 z"
       id="path27"
       style="stroke-width:0.0504549" />
  </g>
</svg>
