<?xml version="1.0" encoding="UTF-8" standalone="no"?>
<!DOCTYPE svg PUBLIC "-//W3C//DTD SVG 1.1//EN" "http://www.w3.org/Graphics/SVG/1.1/DTD/svg11.dtd">
<svg width="100%" height="100%" viewBox="0 0 3600 3000" version="1.1" xmlns="http://www.w3.org/2000/svg" xmlns:xlink="http://www.w3.org/1999/xlink" xml:space="preserve" xmlns:serif="http://www.serif.com/" style="fill-rule:evenodd;clip-rule:evenodd;stroke-linejoin:round;stroke-miterlimit:2;">
    <g transform="matrix(0.1,0,0,-0.1,0,3000)">
        <path d="M17780,19410C17180,19353 16640,19107 16213,18696C15863,18359 15613,17930 15497,17465C15438,17227 15425,17118 15426,16835C15426,16569 15434,16495 15486,16263C15611,15703 15949,15071 16446,14465C16837,13987 17392,13454 17888,13077L18002,12991L18102,13066C18641,13475 19203,14020 19609,14528C20062,15096 20368,15666 20501,16193C20647,16773 20599,17354 20360,17890C20036,18618 19370,19168 18592,19351C18361,19405 18006,19431 17780,19410ZM18124,18850C18601,18815 19015,18629 19349,18298C19642,18007 19832,17634 19896,17222C19918,17079 19918,16801 19896,16660C19809,16111 19508,15643 19045,15337C18875,15225 18672,15136 18475,15087C18290,15041 18237,15035 17990,15035C17775,15036 17745,15038 17630,15063C16796,15240 16198,15893 16099,16734C16084,16859 16092,17143 16114,17265C16210,17801 16512,18254 16972,18554C17224,18718 17558,18829 17864,18850C17925,18854 17977,18858 17980,18858C17983,18859 18048,18855 18124,18850Z" style="fill:rgb(0,113,189);fill-rule:nonzero;"/>
        <path d="M17796,18600C17217,18527 16719,18178 16462,17664C16278,17297 16234,16884 16337,16485C16360,16396 16389,16313 16390,16332C16390,16335 16379,16380 16366,16432C16326,16582 16316,16674 16316,16860C16316,17048 16325,17123 16370,17296C16511,17833 16928,18279 17455,18456C17656,18523 17729,18534 17985,18534C18170,18535 18233,18531 18305,18517C18985,18379 19505,17859 19641,17183C19687,16953 19677,16654 19615,16417C19602,16367 19593,16324 19595,16322C19602,16315 19650,16486 19672,16592C19690,16679 19694,16729 19694,16910C19694,17096 19691,17139 19672,17229C19572,17687 19333,18051 18962,18308C18760,18448 18537,18539 18279,18586C18180,18604 17894,18612 17796,18600Z" style="fill:rgb(0,113,189);fill-rule:nonzero;"/>
        <path d="M17760,18396C17548,18358 17365,18285 17196,18171C17136,18130 16992,18010 17003,18010C17005,18010 17051,18040 17106,18077C17580,18395 18189,18436 18695,18183C18778,18141 18926,18051 18976,18011C18987,18002 18969,18021 18936,18053C18777,18205 18546,18324 18296,18382C18180,18409 17876,18416 17760,18396Z" style="fill:rgb(0,113,189);fill-rule:nonzero;"/>
        <path d="M17766,18214C17545,18174 17276,18038 17145,17900C17122,17876 17134,17881 17200,17926C17356,18031 17544,18108 17736,18147C17869,18173 18131,18171 18267,18142C18452,18102 18635,18026 18785,17925L18855,17879L18815,17920C18731,18008 18546,18116 18390,18170C18219,18228 17951,18247 17766,18214Z" style="fill:rgb(0,113,189);fill-rule:nonzero;"/>
        <path d="M17880,18049C17673,18029 17415,17915 17300,17795L17265,17758L17320,17793C17684,18022 18135,18052 18516,17871C18571,17845 18643,17806 18676,17786L18735,17749L18685,17795C18481,17982 18175,18078 17880,18049Z" style="fill:rgb(0,113,189);fill-rule:nonzero;"/>
        <path d="M17890,17870C17716,17849 17547,17776 17425,17667C17386,17633 17389,17633 17505,17691C17656,17766 17782,17799 17941,17807C18152,17817 18382,17760 18550,17655L18595,17627L18570,17655C18509,17721 18338,17816 18226,17845C18161,17861 18020,17881 17980,17879C17966,17878 17926,17874 17890,17870Z" style="fill:rgb(0,113,189);fill-rule:nonzero;"/>
        <path d="M17889,17689C17769,17672 17643,17616 17565,17545L17525,17509L17575,17533C17721,17604 17877,17636 18038,17627C18167,17620 18271,17595 18388,17540L18475,17500L18435,17534C18338,17617 18217,17671 18086,17689C17999,17701 17970,17701 17889,17689Z" style="fill:rgb(0,113,189);fill-rule:nonzero;"/>
        <path d="M17883,17505C17813,17490 17713,17441 17680,17405L17657,17381L17707,17400C17880,17466 18083,17466 18275,17401L18335,17380L18300,17410C18250,17452 18168,17489 18092,17506C18011,17523 17964,17523 17883,17505Z" style="fill:rgb(0,113,189);fill-rule:nonzero;"/>
        <path d="M16840,17263C16825,17257 16809,17247 16806,17241C16802,17235 16780,17230 16757,17230C16683,17230 16649,17188 16611,17051C16534,16772 16589,16335 16708,16280C16740,16266 16741,16263 16734,16220C16725,16155 16705,16123 16670,16115C16643,16109 16640,16105 16640,16069L16640,16030L16719,16030C16791,16030 16799,16032 16805,16051C16815,16080 16868,16138 16901,16156C16938,16175 16940,16174 16940,16145C16940,16120 16941,16120 17025,16120L17110,16120L17110,16230L18880,16230L18880,16120L18960,16120C19039,16120 19040,16120 19040,16145C19040,16159 19042,16170 19045,16170C19074,16170 19156,16098 19179,16053C19190,16032 19198,16030 19265,16030L19340,16030L19340,16069C19340,16103 19337,16108 19308,16116C19272,16127 19252,16167 19251,16230C19250,16259 19256,16268 19280,16282C19318,16304 19364,16397 19387,16501C19410,16602 19410,16895 19387,16996C19349,17162 19305,17230 19233,17230C19214,17230 19185,17239 19170,17250C19141,17270 19129,17271 18004,17273C17165,17274 16860,17272 16840,17263ZM16862,17223C16761,17079 16749,16560 16841,16314C16869,16240 16886,16230 16992,16230C17064,16230 17080,16227 17080,16215C17080,16203 17065,16200 17005,16200C16903,16200 16833,16162 16794,16088C16781,16063 16774,16060 16725,16060C16683,16060 16670,16063 16670,16075C16670,16084 16679,16090 16693,16090C16749,16090 16777,16218 16759,16397C16743,16556 16743,16917 16758,17000C16782,17124 16812,17210 16838,17231C16873,17258 16885,17255 16862,17223ZM19189,17148C19233,17001 19243,16896 19234,16645C19220,16246 19222,16170 19246,16130C19257,16110 19275,16094 19288,16092C19300,16090 19310,16082 19310,16074C19310,16064 19296,16060 19255,16060C19224,16060 19200,16064 19200,16070C19200,16089 19116,16173 19083,16186C19065,16194 19017,16200 18975,16200C18915,16200 18900,16203 18900,16215C18900,16227 18917,16230 18993,16230C19077,16230 19089,16232 19107,16253C19152,16300 19182,16420 19201,16626C19220,16835 19189,17098 19134,17199C19121,17223 19110,17244 19110,17247C19110,17249 19123,17244 19138,17236C19161,17224 19171,17207 19189,17148ZM19097,17218C19208,17098 19209,16416 19099,16276L19079,16250L18000,16250C17407,16250 16914,16253 16905,16256C16844,16280 16792,16567 16803,16825C16812,17026 16843,17173 16887,17222C16902,17239 16959,17240 17990,17240L19077,17240L19097,17218ZM16776,17188C16718,16991 16703,16826 16719,16573C16725,16475 16733,16373 16737,16346C16742,16303 16741,16298 16724,16301C16698,16306 16644,16418 16623,16510C16601,16610 16600,16874 16623,16980C16652,17123 16687,17191 16735,17203C16777,17213 16783,17211 16776,17188ZM19287,17178C19300,17166 19321,17122 19335,17079C19403,16861 19392,16521 19310,16361C19290,16320 19263,16294 19253,16304C19250,16307 19252,16385 19259,16477C19282,16814 19265,17035 19204,17194C19197,17211 19200,17212 19230,17206C19249,17203 19274,17190 19287,17178ZM17080,16160C17080,16155 17055,16150 17025,16150C16995,16150 16970,16155 16970,16160C16970,16166 16995,16170 17025,16170C17055,16170 17080,16166 17080,16160ZM19010,16160C19010,16155 18985,16150 18955,16150C18925,16150 18900,16155 18900,16160C18900,16166 18925,16170 18955,16170C18985,16170 19010,16166 19010,16160Z" style="fill:rgb(0,113,189);fill-rule:nonzero;"/>
        <path d="M16921,17162C16904,17129 16881,17026 16869,16920C16849,16743 16872,16460 16916,16350L16932,16310L19051,16310L19065,16343C19085,16392 19108,16520 19119,16645C19134,16810 19110,17046 19070,17138L19051,17180L17991,17180C16986,17180 16930,17179 16921,17162Z" style="fill:rgb(0,113,189);fill-rule:nonzero;"/>
    </g>
</svg>
