<?xml version="1.0" encoding="UTF-8" standalone="no"?>
<svg
   version="1.0"
   width="515.76202pt"
   height="642.62646pt"
   viewBox="0 0 515.76202 642.62646"
   preserveAspectRatio="xMidYMid meet"
   id="svg31"
   sodipodi:docname="Cryogenic-PIN-3.svg"
   inkscape:version="1.1.1 (c3084ef, 2021-09-22)"
   xmlns:inkscape="http://www.inkscape.org/namespaces/inkscape"
   xmlns:sodipodi="http://sodipodi.sourceforge.net/DTD/sodipodi-0.dtd"
   xmlns="http://www.w3.org/2000/svg"
   xmlns:svg="http://www.w3.org/2000/svg">
  <defs
     id="defs35" />
  <sodipodi:namedview
     id="namedview33"
     pagecolor="#ffffff"
     bordercolor="#666666"
     borderopacity="1.0"
     inkscape:pageshadow="2"
     inkscape:pageopacity="0.0"
     inkscape:pagecheckerboard="0"
     inkscape:document-units="pt"
     showgrid="false"
     inkscape:zoom="0.6241185"
     inkscape:cx="111.35706"
     inkscape:cy="518.33105"
     inkscape:window-width="1920"
     inkscape:window-height="1027"
     inkscape:window-x="1440"
     inkscape:window-y="25"
     inkscape:window-maximized="1"
     inkscape:current-layer="g29" />
  <g
     transform="matrix(0.1,0,0,-0.1,-1542.5948,1941.7265)"
     fill="rgb(0,113,189)"
     stroke="none"
     id="g29">
    <circle
       style="fill:#ffffff;stroke-width:35.0715;stroke-linecap:round;fill-opacity:1"
       id="path198"
       cx="18015.6"
       cy="-16935.764"
       r="1976.788"
       transform="scale(1,-1)" />
    <path
       d="m 17780,19410 c -600,-57 -1140,-303 -1567,-714 -350,-337 -600,-766 -716,-1231 -59,-238 -72,-347 -71,-630 0,-266 8,-340 60,-572 125,-560 463,-1192 960,-1798 391,-478 946,-1011 1442,-1388 l 114,-86 100,75 c 539,409 1101,954 1507,1462 453,568 759,1138 892,1665 146,580 98,1161 -141,1697 -324,728 -990,1278 -1768,1461 -231,54 -586,80 -812,59 z m 344,-560 c 477,-35 891,-221 1225,-552 293,-291 483,-664 547,-1076 22,-143 22,-421 0,-562 -87,-549 -388,-1017 -851,-1323 -170,-112 -373,-201 -570,-250 -185,-46 -238,-52 -485,-52 -215,1 -245,3 -360,28 -834,177 -1432,830 -1531,1671 -15,125 -7,409 15,531 96,536 398,989 858,1289 252,164 586,275 892,296 61,4 113,8 116,8 3,1 68,-3 144,-8 z"
       id="path9" />
    <path
       d="m 17796,18600 c -579,-73 -1077,-422 -1334,-936 -184,-367 -228,-780 -125,-1179 23,-89 52,-172 53,-153 0,3 -11,48 -24,100 -40,150 -50,242 -50,428 0,188 9,263 54,436 141,537 558,983 1085,1160 201,67 274,78 530,78 185,1 248,-3 320,-17 680,-138 1200,-658 1336,-1334 46,-230 36,-529 -26,-766 -13,-50 -22,-93 -20,-95 7,-7 55,164 77,270 18,87 22,137 22,318 0,186 -3,229 -22,319 -100,458 -339,822 -710,1079 -202,140 -425,231 -683,278 -99,18 -385,26 -483,14 z"
       id="path11" />
    <path
       d="m 17760,18396 c -212,-38 -395,-111 -564,-225 -60,-41 -204,-161 -193,-161 2,0 48,30 103,67 474,318 1083,359 1589,106 83,-42 231,-132 281,-172 11,-9 -7,10 -40,42 -159,152 -390,271 -640,329 -116,27 -420,34 -536,14 z"
       id="path13" />
    <path
       d="m 17766,18214 c -221,-40 -490,-176 -621,-314 -23,-24 -11,-19 55,26 156,105 344,182 536,221 133,26 395,24 531,-5 185,-40 368,-116 518,-217 l 70,-46 -40,41 c -84,88 -269,196 -425,250 -171,58 -439,77 -624,44 z"
       id="path15" />
    <path
       d="m 17880,18049 c -207,-20 -465,-134 -580,-254 l -35,-37 55,35 c 364,229 815,259 1196,78 55,-26 127,-65 160,-85 l 59,-37 -50,46 c -204,187 -510,283 -805,254 z"
       id="path17" />
    <path
       d="m 17890,17870 c -174,-21 -343,-94 -465,-203 -39,-34 -36,-34 80,24 151,75 277,108 436,116 211,10 441,-47 609,-152 l 45,-28 -25,28 c -61,66 -232,161 -344,190 -65,16 -206,36 -246,34 -14,-1 -54,-5 -90,-9 z"
       id="path19" />
    <path
       d="m 17889,17689 c -120,-17 -246,-73 -324,-144 l -40,-36 50,24 c 146,71 302,103 463,94 129,-7 233,-32 350,-87 l 87,-40 -40,34 c -97,83 -218,137 -349,155 -87,12 -116,12 -197,0 z"
       id="path21" />
    <path
       d="m 17883,17505 c -70,-15 -170,-64 -203,-100 l -23,-24 50,19 c 173,66 376,66 568,1 l 60,-21 -35,30 c -50,42 -132,79 -208,96 -81,17 -128,17 -209,-1 z"
       id="path23" />
    <path
       d="m 16840,17263 c -15,-6 -31,-16 -34,-22 -4,-6 -26,-11 -49,-11 -74,0 -108,-42 -146,-179 -77,-279 -22,-716 97,-771 32,-14 33,-17 26,-60 -9,-65 -29,-97 -64,-105 -27,-6 -30,-10 -30,-46 v -39 h 79 c 72,0 80,2 86,21 10,29 63,87 96,105 37,19 39,18 39,-11 0,-25 1,-25 85,-25 h 85 v 55 55 h 885 885 v -55 -55 h 80 c 79,0 80,0 80,25 0,14 2,25 5,25 29,0 111,-72 134,-117 11,-21 19,-23 86,-23 h 75 v 39 c 0,34 -3,39 -32,47 -36,11 -56,51 -57,114 -1,29 5,38 29,52 38,22 84,115 107,219 23,101 23,394 0,495 -38,166 -82,234 -154,234 -19,0 -48,9 -63,20 -29,20 -41,21 -1166,23 -839,1 -1144,-1 -1164,-10 z m 22,-40 c -101,-144 -113,-663 -21,-909 28,-74 45,-84 151,-84 72,0 88,-3 88,-15 0,-12 -15,-15 -75,-15 -102,0 -172,-38 -211,-112 -13,-25 -20,-28 -69,-28 -42,0 -55,3 -55,15 0,9 9,15 23,15 56,0 84,128 66,307 -16,159 -16,520 -1,603 24,124 54,210 80,231 35,27 47,24 24,-8 z m 2327,-75 c 44,-147 54,-252 45,-503 -14,-399 -12,-475 12,-515 11,-20 29,-36 42,-38 12,-2 22,-10 22,-18 0,-10 -14,-14 -55,-14 -31,0 -55,4 -55,10 0,19 -84,103 -117,116 -18,8 -66,14 -108,14 -60,0 -75,3 -75,15 0,12 17,15 93,15 84,0 96,2 114,23 45,47 75,167 94,373 19,209 -12,472 -67,573 -13,24 -24,45 -24,48 0,2 13,-3 28,-11 23,-12 33,-29 51,-88 z m -92,70 c 111,-120 112,-802 2,-942 l -20,-26 h -1079 c -593,0 -1086,3 -1095,6 -61,24 -113,311 -102,569 9,201 40,348 84,397 15,17 72,18 1103,18 h 1087 z m -2321,-30 c -58,-197 -73,-362 -57,-615 6,-98 14,-200 18,-227 5,-43 4,-48 -13,-45 -26,5 -80,117 -101,209 -22,100 -23,364 0,470 29,143 64,211 112,223 42,10 48,8 41,-15 z m 2511,-10 c 13,-12 34,-56 48,-99 68,-218 57,-558 -25,-718 -20,-41 -47,-67 -57,-57 -3,3 -1,81 6,173 23,337 6,558 -55,717 -7,17 -4,18 26,12 19,-3 44,-16 57,-28 z m -2207,-1018 c 0,-5 -25,-10 -55,-10 -30,0 -55,5 -55,10 0,6 25,10 55,10 30,0 55,-4 55,-10 z m 1930,0 c 0,-5 -25,-10 -55,-10 -30,0 -55,5 -55,10 0,6 25,10 55,10 30,0 55,-4 55,-10 z"
       id="path25" />
    <path
       d="m 16921,17162 c -17,-33 -40,-136 -52,-242 -20,-177 3,-460 47,-570 l 16,-40 h 1060 1059 l 14,33 c 20,49 43,177 54,302 15,165 -9,401 -49,493 l -19,42 h -1060 c -1005,0 -1061,-1 -1070,-18 z"
       id="path27" />
  </g>
</svg>
