<?xml version="1.0" encoding="UTF-8" standalone="no"?>
<svg
   version="1.0"
   width="27"
   height="43"
   viewBox="0 0 20.25 32.250001"
   preserveAspectRatio="xMidYMid meet"
   id="svg31"
   sodipodi:docname="smpin.svg"
   inkscape:version="1.1.1 (1:1.1+202109281949+c3084ef5ed)"
   xmlns:inkscape="http://www.inkscape.org/namespaces/inkscape"
   xmlns:sodipodi="http://sodipodi.sourceforge.net/DTD/sodipodi-0.dtd"
   xmlns="http://www.w3.org/2000/svg"
   xmlns:svg="http://www.w3.org/2000/svg">
  <defs
     id="defs35" />
  <sodipodi:namedview
     id="namedview33"
     pagecolor="#ffffff"
     bordercolor="#666666"
     borderopacity="1.0"
     inkscape:pageshadow="2"
     inkscape:pageopacity="0.0"
     inkscape:pagecheckerboard="0"
     inkscape:document-units="px"
     showgrid="false"
     inkscape:zoom="0.6241185"
     inkscape:cx="-119.36836"
     inkscape:cy="518.33105"
     inkscape:window-width="1848"
     inkscape:window-height="1016"
     inkscape:window-x="72"
     inkscape:window-y="27"
     inkscape:window-maximized="1"
     inkscape:current-layer="g29"
     units="px" />
  <g
     transform="matrix(0.1,0,0,-0.1,-1542.5948,1941.7265)"
     fill="rgb(0,113,189)"
     stroke="none"
     id="g29">
    <ellipse
       style="fill:#ffffff;fill-opacity:1;stroke-width:1.55678;stroke-linecap:round"
       id="path198"
       cx="15527.623"
       cy="-19292.732"
       transform="scale(1,-1)"
       rx="77.613319"
       ry="99.204498" />
    <path
       d="m 15518.374,19416.9 c -23.558,-2.86 -44.76,-15.206 -61.525,-35.832 -13.743,-16.912 -23.557,-38.441 -28.111,-61.777 -2.318,-11.944 -2.828,-17.414 -2.788,-31.617 0,-13.348 0.313,-17.062 2.356,-28.705 4.907,-28.103 18.178,-59.82 37.692,-90.232 15.352,-23.989 37.141,-50.737 56.615,-69.657 l 4.477,-4.315 3.926,3.764 c 21.162,20.525 43.227,47.876 59.169,73.37 17.784,28.505 29.799,57.11 35.021,83.558 5.733,29.106 3.847,58.263 -5.535,85.163 -12.722,36.534 -38.871,64.136 -69.417,73.319 -9.07,2.71 -23.009,4.015 -31.88,2.961 z m 13.506,-28.103 c 18.727,-1.756 34.981,-11.091 48.096,-27.702 11.505,-14.604 18.963,-33.323 21.477,-53.999 0.864,-7.177 0.864,-21.128 0,-28.204 -3.416,-27.551 -15.235,-51.037 -33.413,-66.394 -6.676,-5.621 -14.645,-10.087 -22.381,-12.546 -7.263,-2.309 -9.344,-2.61 -19.041,-2.61 -8.44,0.05 -9.619,0.151 -14.135,1.405 -32.744,8.883 -56.223,41.654 -60.109,83.859 -0.589,6.273 -0.277,20.525 0.587,26.648 3.769,26.899 15.627,49.632 33.688,64.688 9.895,8.231 23.008,13.801 35.023,14.855 2.394,0.201 4.435,0.401 4.554,0.401 0.113,0.05 2.669,-0.15 5.654,-0.401 z"
       id="path9"
       style="stroke-width:0.0443888" />
    <path
       d="m 15519.001,19376.251 c -22.731,-3.663 -42.286,-21.178 -52.375,-46.973 -7.225,-18.418 -8.953,-39.145 -4.908,-59.168 0.903,-4.466 2.041,-8.632 2.079,-7.678 0,0.151 -0.432,2.408 -0.94,5.019 -1.571,7.527 -1.964,12.144 -1.964,21.478 0,9.435 0.353,13.198 2.119,21.881 5.538,26.949 21.909,49.331 42.602,58.214 7.891,3.362 10.757,3.914 20.808,3.914 7.263,0.05 9.738,-0.15 12.564,-0.852 26.698,-6.926 47.115,-33.022 52.454,-66.947 1.807,-11.543 1.413,-26.548 -1.021,-38.441 -0.509,-2.51 -0.864,-4.667 -0.786,-4.768 0.277,-0.351 2.16,8.231 3.024,13.55 0.707,4.366 0.864,6.875 0.864,15.959 0,9.334 -0.112,11.492 -0.864,16.009 -3.926,22.984 -13.308,41.251 -27.875,54.148 -7.931,7.027 -16.688,11.593 -26.818,13.953 -3.885,0.903 -15.115,1.304 -18.963,0.702 z"
       id="path11"
       style="stroke-width:0.0443888" />
    <path
       d="m 15517.588,19366.013 c -8.325,-1.907 -15.509,-5.571 -22.144,-11.292 -2.356,-2.057 -8.01,-8.079 -7.578,-8.079 0.07,0 1.885,1.505 4.045,3.363 18.61,15.958 42.521,18.015 62.386,5.319 3.26,-2.109 9.07,-6.625 11.034,-8.632 0.432,-0.452 -0.274,0.502 -1.57,2.107 -6.244,7.628 -15.314,13.601 -25.128,16.511 -4.554,1.356 -16.491,1.706 -21.045,0.703 z"
       id="path13"
       style="stroke-width:0.0443888" />
    <path
       d="m 15517.825,19356.88 c -8.679,-2.008 -19.24,-8.833 -24.384,-15.758 -0.902,-1.205 -0.432,-0.954 2.16,1.304 6.125,5.27 13.507,9.134 21.045,11.091 5.222,1.305 15.509,1.204 20.848,-0.251 7.263,-2.008 14.447,-5.821 20.338,-10.89 l 2.747,-2.308 -1.57,2.057 c -3.297,4.417 -10.562,9.837 -16.686,12.547 -6.714,2.91 -17.235,3.864 -24.498,2.208 z"
       id="path15"
       style="stroke-width:0.0443888" />
    <path
       d="m 15522.3,19348.599 c -8.127,-1.004 -18.257,-6.724 -22.772,-12.747 l -1.375,-1.857 2.16,1.757 c 14.292,11.492 31.999,12.998 46.957,3.914 2.16,-1.305 4.986,-3.262 6.282,-4.266 l 2.316,-1.856 -1.962,2.308 c -8.01,9.385 -20.023,14.202 -31.606,12.747 z"
       id="path17"
       style="stroke-width:0.0443888" />
    <path
       d="m 15522.691,19339.616 c -6.831,-1.054 -13.466,-4.718 -18.256,-10.188 -1.53,-1.706 -1.413,-1.706 3.141,1.204 5.929,3.765 10.876,5.42 17.118,5.823 8.284,0.501 17.316,-2.36 23.911,-7.629 l 1.766,-1.406 -0.981,1.406 c -2.394,3.312 -9.108,8.08 -13.507,9.535 -2.551,0.804 -8.086,1.807 -9.657,1.707 -0.551,-0.05 -2.122,-0.251 -3.535,-0.452 z"
       id="path19"
       style="stroke-width:0.0443888" />
    <path
       d="m 15522.653,19330.533 c -4.711,-0.854 -9.659,-3.664 -12.721,-7.227 l -1.571,-1.806 1.964,1.204 c 5.731,3.563 11.856,5.169 18.178,4.716 5.065,-0.35 9.149,-1.605 13.741,-4.365 l 3.415,-2.008 -1.57,1.706 c -3.807,4.167 -8.559,6.876 -13.703,7.78 -3.415,0.601 -4.554,0.601 -7.733,0 z"
       id="path21"
       style="stroke-width:0.0443888" />
    <path
       d="m 15522.417,19321.298 c -2.747,-0.753 -6.674,-3.211 -7.97,-5.018 l -0.904,-1.204 1.964,0.953 c 6.793,3.312 14.762,3.312 22.302,0.05 l 2.356,-1.055 -1.375,1.506 c -1.964,2.107 -5.184,3.965 -8.167,4.817 -3.18,0.854 -5.025,0.854 -8.206,-0.05 z"
       id="path23"
       style="stroke-width:0.0443888" />
    <path
       d="m 15481.467,19309.154 c -0.59,-0.301 -1.217,-0.803 -1.334,-1.105 -0.158,-0.3 -1.022,-0.551 -1.924,-0.551 -2.907,0 -4.241,-2.108 -5.733,-8.984 -3.024,-14.001 -0.864,-35.931 3.807,-38.692 1.258,-0.702 1.296,-0.853 1.021,-3.011 -0.353,-3.262 -1.138,-4.868 -2.513,-5.27 -1.06,-0.3 -1.177,-0.501 -1.177,-2.308 v -1.957 h 3.101 c 2.828,0 3.141,0.101 3.377,1.054 0.394,1.456 2.473,4.366 3.769,5.269 1.453,0.954 1.532,0.903 1.532,-0.552 0,-1.255 0.05,-1.255 3.337,-1.255 h 3.337 v 2.761 2.76 h 34.749 34.746 v -2.76 -2.761 h 3.141 c 3.101,0 3.141,0 3.141,1.255 0,0.702 0.07,1.255 0.203,1.255 1.138,0 4.358,-3.613 5.26,-5.872 0.432,-1.054 0.747,-1.154 3.378,-1.154 h 2.945 v 1.957 c 0,1.707 -0.113,1.958 -1.258,2.359 -1.413,0.552 -2.198,2.559 -2.236,5.721 -0.05,1.455 0.202,1.907 1.138,2.609 1.492,1.105 3.296,5.772 4.201,10.991 0.902,5.069 0.902,19.773 0,24.841 -1.492,8.332 -3.22,11.744 -6.046,11.744 -0.747,0 -1.885,0.452 -2.475,1.004 -1.138,1.003 -1.609,1.053 -45.778,1.154 -32.943,0.05 -44.917,-0.05 -45.702,-0.502 z m 0.864,-2.008 c -3.967,-7.227 -4.437,-33.272 -0.826,-45.617 1.1,-3.714 1.769,-4.216 5.929,-4.216 2.828,0 3.456,-0.15 3.456,-0.753 0,-0.603 -0.59,-0.753 -2.945,-0.753 -4.005,0 -6.753,-1.906 -8.285,-5.62 -0.511,-1.255 -0.785,-1.405 -2.709,-1.405 -1.649,0 -2.16,0.15 -2.16,0.753 0,0.451 0.353,0.753 0.905,0.753 2.198,0 3.298,6.422 2.589,15.406 -0.627,7.979 -0.627,26.096 -0.05,30.262 0.943,6.222 2.12,10.538 3.141,11.591 1.375,1.356 1.845,1.206 0.943,-0.401 z m 91.363,-3.764 c 1.728,-7.377 2.12,-12.646 1.767,-25.243 -0.549,-20.023 -0.471,-23.837 0.47,-25.845 0.432,-1.004 1.138,-1.806 1.649,-1.907 0.473,-0.1 0.864,-0.502 0.864,-0.903 0,-0.502 -0.549,-0.702 -2.16,-0.702 -1.217,0 -2.158,0.2 -2.158,0.502 0,0.953 -3.298,5.169 -4.594,5.821 -0.707,0.401 -2.592,0.702 -4.241,0.702 -2.356,0 -2.943,0.15 -2.943,0.753 0,0.603 0.666,0.753 3.651,0.753 3.297,0 3.769,0.101 4.476,1.154 1.766,2.359 2.945,8.381 3.69,18.719 0.747,10.488 -0.471,23.688 -2.631,28.756 -0.51,1.204 -0.942,2.258 -0.942,2.409 0,0.1 0.51,-0.151 1.1,-0.553 0.902,-0.601 1.296,-1.455 2.002,-4.416 z m -3.613,3.513 c 4.358,-6.021 4.399,-40.248 0.07,-47.273 l -0.785,-1.305 H 15527 c -23.283,0 -42.64,0.15 -42.993,0.301 -2.394,1.204 -4.437,15.607 -4.005,28.554 0.353,10.088 1.571,17.465 3.299,19.924 0.589,0.854 2.826,0.904 43.305,0.904 h 42.678 z m -91.127,-1.505 c -2.277,-9.887 -2.867,-18.167 -2.239,-30.864 0.236,-4.918 0.551,-10.036 0.709,-11.392 0.202,-2.158 0.157,-2.409 -0.511,-2.258 -1.022,0.251 -3.141,5.872 -3.967,10.489 -0.864,5.018 -0.902,18.267 0,23.587 1.139,7.175 2.513,10.589 4.399,11.191 1.649,0.501 1.883,0.402 1.609,-0.753 z m 98.588,-0.502 c 0.511,-0.602 1.334,-2.81 1.883,-4.969 2.671,-10.94 2.239,-28.002 -0.981,-36.032 -0.785,-2.057 -1.845,-3.362 -2.236,-2.86 -0.113,0.15 -0.05,4.064 0.234,8.681 0.904,16.913 0.236,28.003 -2.16,35.983 -0.275,0.854 -0.158,0.903 1.021,0.603 0.747,-0.151 1.728,-0.804 2.239,-1.406 z m -86.652,-51.088 c 0,-0.251 -0.981,-0.502 -2.16,-0.502 -1.177,0 -2.16,0.251 -2.16,0.502 0,0.301 0.983,0.502 2.16,0.502 1.179,0 2.16,-0.201 2.16,-0.502 z m 75.775,0 c 0,-0.251 -0.981,-0.502 -2.16,-0.502 -1.176,0 -2.157,0.251 -2.157,0.502 0,0.301 0.981,0.502 2.157,0.502 1.179,0 2.16,-0.201 2.16,-0.502 z"
       id="path25"
       style="stroke-width:0.0443888" />
    <path
       d="m 15484.646,19304.086 c -0.666,-1.657 -1.57,-6.826 -2.041,-12.146 -0.785,-8.882 0.113,-23.085 1.845,-28.605 l 0.628,-2.007 h 41.618 41.58 l 0.549,1.656 c 0.786,2.459 1.688,8.883 2.12,15.155 0.589,8.281 -0.353,20.124 -1.924,24.741 l -0.745,2.109 h -41.618 c -39.458,0 -41.659,-0.05 -42.012,-0.903 z"
       id="path27"
       style="stroke-width:0.0443888" />
  </g>
</svg>
