<?xml version="1.0" encoding="UTF-8" standalone="no"?>
<svg
   version="1.0"
   width="210pt"
   height="300pt"
   viewBox="0 0 210 300"
   preserveAspectRatio="xMidYMid meet"
   id="svg846"
   sodipodi:docname="tpin.svg"
   inkscape:version="1.1.1 (1:1.1+202109281949+c3084ef5ed)"
   xmlns:inkscape="http://www.inkscape.org/namespaces/inkscape"
   xmlns:sodipodi="http://sodipodi.sourceforge.net/DTD/sodipodi-0.dtd"
   xmlns="http://www.w3.org/2000/svg"
   xmlns:svg="http://www.w3.org/2000/svg">
  <defs
     id="defs850" />
  <sodipodi:namedview
     id="namedview848"
     pagecolor="#ffffff"
     bordercolor="#666666"
     borderopacity="1.0"
     inkscape:pageshadow="2"
     inkscape:pageopacity="0.0"
     inkscape:pagecheckerboard="0"
     inkscape:document-units="pt"
     showgrid="false"
     inkscape:zoom="0.51323064"
     inkscape:cx="-8.7679878"
     inkscape:cy="392.61101"
     inkscape:window-width="1848"
     inkscape:window-height="1016"
     inkscape:window-x="72"
     inkscape:window-y="27"
     inkscape:window-maximized="1"
     inkscape:current-layer="g844"
     units="pt" />
  <g
     transform="matrix(0.1,0,0,-0.1,-1542.5948,1941.7265)"
     fill="#0071bd"
     stroke="none"
     id="g844">
    <path
       d="m 16384.433,19413.876 c -244.298,-26.614 -464.17,-141.452 -638.026,-333.314 -142.507,-157.333 -244.299,-357.6 -291.542,-574.688 -24.01,-111.082 -29.301,-161.984 -28.896,-294.09 0,-124.192 3.254,-158.72 24.448,-267.04 50.87,-261.408 188.491,-556.46 390.848,-839.351 159.211,-223.147 385.195,-471.978 587.158,-647.978 l 46.389,-40.15 40.736,35.019 c 219.457,190.933 448.278,445.365 613.58,682.506 184.458,265.174 309.056,531.266 363.2,777.282 59.445,270.752 39.914,541.994 -57.408,792.224 -131.936,339.85 -403.094,596.609 -719.872,682.038 -94.048,25.195 -238.593,37.344 -330.615,27.542 z m 140.075,-261.42 c 194.198,-16.331 362.774,-103.179 498.785,-257.686 119.275,-135.861 196.64,-309.994 222.699,-502.325 8.96,-66.763 8.96,-196.533 0,-262.368 -35.414,-256.288 -157.984,-474.773 -346.496,-617.601 -69.206,-52.299 -151.862,-93.846 -232.086,-116.726 -75.317,-21.472 -96.895,-24.266 -197.473,-24.266 -87.541,0.426 -99.744,1.365 -146.581,13.066 -339.563,82.624 -583.051,387.479 -623.371,780.087 -6.101,58.347 -2.848,190.933 6.112,247.893 39.083,250.208 162.048,461.686 349.334,601.739 102.624,76.555 238.613,128.373 363.21,138.187 24.832,1.845 46.006,3.733 47.232,3.733 1.248,0.427 27.68,-1.365 58.635,-3.733 z"
       id="path824"
       style="stroke-width:0.43598" />
    <ellipse
       style="fill:#ff0000;stroke-width:13.051;stroke-linecap:round"
       id="path931"
       cx="16475.5"
       cy="-18017.611"
       transform="scale(1,-1)"
       rx="784.96643"
       ry="1200" />
  </g>
</svg>
